<svg width="28" height="28" viewBox="0 0 28 28" fill="none" xmlns="http://www.w3.org/2000/svg">
<path fill-rule="evenodd" clip-rule="evenodd" d="M2.71436 14.3904C2.71436 8.24955 7.62933 2.71582 14.4122 2.71582C21.0434 2.71582 26.0634 8.14448 26.0634 14.3553C26.0634 16.5207 25.5317 18.4392 24.6306 20.0635C23.8996 17.7777 21.7832 16 19.0668 16C15.7563 16 13.25 18.7103 13.25 21.811C13.25 23.573 13.9552 25.0075 15.0145 26.0125C14.8061 26.0241 14.5974 26.0299 14.3889 26.0299C12.4743 26.0299 10.3507 25.5162 8.64618 24.5122C8.04962 24.1503 7.54761 23.8817 6.90551 24.0919L4.54726 24.7924C3.95186 24.9792 3.41483 24.5122 3.58995 23.8817L4.37214 21.2667C4.50056 20.9047 4.47721 20.5195 4.29042 20.2159C3.28641 18.3714 2.71436 16.3517 2.71436 14.3904Z" fill="white" fill-opacity="0.45"/>
<path fill-rule="evenodd" clip-rule="evenodd" d="M19.0404 16.7056C21.7588 16.7056 23.7285 18.9233 23.7285 21.3843C23.7285 22.1703 23.4993 22.9797 23.0969 23.719C23.022 23.8406 23.0127 23.995 23.0641 24.14L23.3776 25.1881C23.4478 25.4407 23.2326 25.6279 22.994 25.553L22.0489 25.2723C21.7915 25.1881 21.5903 25.2957 21.3513 25.4407C20.6682 25.8431 19.8171 26.049 19.0498 26.049C16.7292 26.049 14.3711 24.257 14.3711 21.3702C14.3711 18.8812 16.3829 16.7056 19.0404 16.7056Z" fill="white" fill-opacity="0.45"/>
</svg>
