<svg width="28" height="28" viewBox="0 0 28 28" fill="none" xmlns="http://www.w3.org/2000/svg">
<path d="M6.06022 7.04499C6.17884 6.91397 6.30132 6.78519 6.42769 6.65882C6.99413 6.09239 7.60898 5.60385 8.25891 5.19322C7.89106 5.09183 7.56043 5.03177 7.27063 5.00992C6.59998 4.95934 6.30628 5.11859 6.18102 5.24385C6.05576 5.36911 5.8965 5.66282 5.94709 6.33345C5.96332 6.54862 6.0006 6.78629 6.06022 7.04499ZM24.1092 16.7064C24.1814 16.8505 24.2505 16.9934 24.3167 17.1351C24.8751 18.3316 25.244 19.4995 25.3231 20.5493C25.4019 21.594 25.1993 22.6824 24.4094 23.4722C23.6194 24.2621 22.5312 24.4647 21.4865 24.386C20.5718 24.317 19.5675 24.028 18.5327 23.5855L18.5296 23.587C18.3502 23.5102 18.1699 23.4289 17.9889 23.3431C15.6067 22.2155 12.8811 20.2331 10.3225 17.6745C7.76644 15.1185 5.78559 12.3959 4.65734 10.0156C4.57131 9.83406 4.4896 9.65322 4.41254 9.47333L4.41377 9.47082C3.96945 8.43345 3.67935 7.42656 3.61019 6.50971C3.53139 5.46492 3.73395 4.37666 4.5239 3.58673C5.31384 2.79678 6.40208 2.59422 7.44688 2.67302C8.49667 2.7522 9.66452 3.12106 10.861 3.6794C11.0052 3.7467 11.1506 3.81715 11.2973 3.89069C14.778 3.0134 18.6192 3.9361 21.3419 6.65882C24.0653 9.38231 24.9878 13.2248 24.1092 16.7064ZM22.8052 19.7453C22.3949 20.3939 21.9072 21.0075 21.3419 21.5729C21.2165 21.6983 21.0886 21.8199 20.9587 21.9377C21.2145 21.9963 21.4497 22.033 21.6627 22.049C22.3333 22.0996 22.6271 21.9404 22.7523 21.8151C22.8776 21.6899 23.0368 21.3961 22.9862 20.7255C22.9645 20.4378 22.9052 20.11 22.8052 19.7453ZM6.42769 21.5729C3.77524 18.9205 2.83109 15.2067 3.59521 11.7986C4.86339 14.1197 6.7648 16.6025 9.07963 18.9174C11.3963 21.2339 13.8814 23.1366 16.2041 24.405C12.7956 25.17 9.08069 24.2259 6.42769 21.5729Z" fill="white" fill-opacity="0.45"/>
</svg>
