<svg width="28" height="28" viewBox="0 0 28 28" fill="none" xmlns="http://www.w3.org/2000/svg">
<path fill-rule="evenodd" clip-rule="evenodd" d="M10.6675 24.246V20.6679C10.6675 19.7613 11.4048 19.0247 12.318 19.019H15.6712C16.5885 19.019 17.3322 19.7572 17.3322 20.6679V24.2356C17.3321 25.022 17.9712 25.6611 18.7633 25.6668H21.051C22.1194 25.6695 23.1451 25.2501 23.9015 24.501C24.658 23.7519 25.0832 22.7347 25.0832 21.6739V11.5103C25.0831 10.6534 24.7006 9.84066 24.0386 9.29091L16.2666 3.12014C14.9081 2.04081 12.9678 2.07567 11.6495 3.20311L4.04468 9.29091C3.35137 9.82445 2.93698 10.6397 2.9165 11.5103V21.6636C2.9165 23.8745 4.72178 25.6668 6.94871 25.6668H9.18418C9.56554 25.6696 9.93224 25.5211 10.2029 25.2543C10.4735 24.9876 10.6258 24.6246 10.6257 24.246H10.6675Z" fill="white" fill-opacity="0.45"/>
</svg>
