<svg width="35" height="27" viewBox="0 0 35 27" fill="none" xmlns="http://www.w3.org/2000/svg">
<path d="M17.501 7.5C17.7612 7.50007 18.0154 7.56415 18.2363 7.68359C18.4553 7.80199 18.632 7.96943 18.7529 8.16504V8.16602L22.2852 14.0781L22.5068 14.4492L22.9053 14.2842L28.9844 11.7744L28.9863 11.7734C29.2314 11.6713 29.5045 11.6346 29.7734 11.6689C30.0423 11.7033 30.2918 11.807 30.4941 11.9639L30.4961 11.9658C30.7 12.1219 30.848 12.3237 30.9287 12.5459C31.0092 12.7675 31.022 13.004 30.9648 13.2305L27.9014 25.3125H27.9004L27.8994 25.3184C27.8604 25.4809 27.785 25.6369 27.6758 25.7754C27.5664 25.914 27.4253 26.0329 27.2598 26.1221H27.2588C26.9171 26.3069 26.506 26.361 26.1182 26.2676H26.1191C20.4752 24.8186 14.5141 24.8186 8.87012 26.2676L8.86426 26.2695C8.74277 26.3022 8.61643 26.3181 8.48926 26.3184C8.22158 26.3179 7.96084 26.2503 7.73535 26.125L7.7334 26.124L7.61328 26.0508C7.49856 25.9723 7.39893 25.878 7.31641 25.7734C7.20648 25.6341 7.12965 25.4779 7.08887 25.3145L7.08789 25.3135L4.03711 13.2305L4.03613 13.2295C3.97826 13.0029 3.98931 12.7659 4.06934 12.5439C4.14952 12.3216 4.29749 12.1194 4.50098 11.9629C4.70479 11.8062 4.95573 11.7031 5.22559 11.6689C5.49542 11.6348 5.7696 11.6713 6.01562 11.7734L6.0166 11.7744L12.0957 14.2842L12.4941 14.4492L12.7158 14.0781L16.2471 8.16504C16.368 7.96913 16.5464 7.8021 16.7656 7.68359C16.9866 7.56422 17.2407 7.5 17.501 7.5Z" fill="#FFCC00" stroke="#FFCC00"/>
<circle cx="17.5" cy="4" r="3.5" fill="#FFCC00" stroke="#FFCC00"/>
<circle cx="17.5" cy="18" r="2.5" fill="#BE9502" stroke="#FFCC00"/>
<circle cx="32" cy="10.5" r="2" fill="#FFCC00" stroke="#FFCC00"/>
<circle cx="3" cy="10.5" r="2" fill="#FFCC00" stroke="#FFCC00"/>
<circle cx="10" cy="19.5" r="1" fill="#BE9502" stroke="#FFCC00"/>
<circle cx="25" cy="19.5" r="1" fill="#BE9502" stroke="#FFCC00"/>
</svg>
