<svg width="27" height="33" viewBox="0 0 27 33" fill="none" xmlns="http://www.w3.org/2000/svg">
<path d="M13.5562 5.22238C13.7268 5.1539 13.9153 5.14443 14.0918 5.19549L24.9789 8.34427C25.3366 8.44772 25.5803 8.77838 25.5733 9.15068L25.2411 26.8021C25.2353 27.1093 25.0589 27.3878 24.7835 27.5243L15.4005 32.1752C15.1942 32.2774 14.9546 32.2886 14.7397 32.2061L4.95675 28.4485C4.66593 28.3368 4.46307 28.0706 4.43258 27.7605L2.70756 10.218C2.67175 9.85381 2.88057 9.50972 3.22011 9.37336L13.5562 5.22238Z" fill="black"/>
<path d="M13.3379 0.599609L13.4268 0.616211L26.1699 4.06934C26.4252 4.13858 26.6 4.37324 26.5947 4.6377L26.2119 23.7275C26.2075 23.9476 26.0776 24.1456 25.8779 24.2383L14.8828 29.3447C14.7452 29.4086 14.5881 29.4156 14.4453 29.3643L2.97266 25.2363C2.76476 25.1614 2.6178 24.9737 2.59473 24.7539L0.604492 5.78516C0.577118 5.52434 0.729167 5.2779 0.974609 5.18555L13.0723 0.633789C13.1572 0.601821 13.2485 0.589885 13.3379 0.599609Z" fill="#BBBBF0" stroke="black" stroke-width="0.823329"/>
<mask id="mask0_7234_91558" style="mask-type:alpha" maskUnits="userSpaceOnUse" x="1" y="1" width="26" height="28">
<path d="M13.2673 1L26.1862 4.50058L25.798 23.8221L14.648 29L3.01521 24.8139L1.00018 5.61552L13.2673 1Z" fill="#D9D9D9"/>
</mask>
<g mask="url(#mask0_7234_91558)">
<path d="M13.2896 5.60809V0.652832L26.9508 3.95164L21.2915 8.08985L13.2896 5.60809Z" fill="#C8DEFF"/>
<path d="M13.2896 5.8032V0.504883L-1.41854 3.82983L4.85057 8.48577L13.2896 5.8032Z" fill="white"/>
<path d="M14.6616 24.7873L14.6605 29.7554L1.04678 25.8639L6.72039 22.3046L14.6616 24.7873Z" fill="#838BD0"/>
<path d="M14.6616 24.592V29.8936L28.1045 25.728L23.187 21.6659L14.6616 24.592Z" fill="#646CCC"/>
</g>
<path d="M13.3856 3.5896L23.4865 6.4867L23.593 21.9911L14.6778 26.3441L5.41276 23.1499L3.69681 7.65456L13.3856 3.5896Z" fill="#660138"/>
<mask id="mask1_7234_91558" style="mask-type:alpha" maskUnits="userSpaceOnUse" x="3" y="3" width="21" height="24">
<path d="M13.3856 3.58911L23.4865 6.48621L23.593 21.9906L14.6778 26.3436L5.41276 23.1494L3.69681 7.65407L13.3856 3.58911Z" fill="#660138"/>
</mask>
<g mask="url(#mask1_7234_91558)">
<rect x="1.79932" y="7.24561" width="21.9871" height="10.8274" transform="rotate(-10.4686 1.79932 7.24561)" fill="black"/>
<rect x="1.79932" y="4.49658" width="21.9871" height="10.8274" transform="rotate(-8.26861 1.79932 4.49658)" fill="#838BD0"/>
</g>
<path d="M8.03101 11.9437C8.03707 12.0137 7.8323 12.0666 7.4167 12.1026C6.99673 12.139 6.7839 12.1244 6.77822 12.0587L6.40778 7.78027C6.39452 7.62715 6.46882 7.54359 6.63069 7.52957L7.88405 7.42105C9.0346 7.32144 9.6487 7.72004 9.72635 8.61685C9.74983 8.88809 9.71873 9.1398 9.63306 9.372C9.547 9.59983 9.41342 9.7877 9.23229 9.93561L10.1784 11.2421C10.1525 11.3501 10.0492 11.4802 9.86845 11.6325C9.62225 11.8434 9.41385 11.9562 9.24323 11.9709C9.07262 11.9857 8.94045 11.9354 8.84672 11.8201L8.10546 10.4365L7.90204 10.4541L8.03101 11.9437ZM7.74181 8.60357L7.82704 9.58788L7.85985 9.58504C8.27545 9.54905 8.46829 9.35826 8.43836 9.01266C8.42473 8.85517 8.37313 8.74283 8.28357 8.67566C8.19801 8.60373 8.06336 8.57573 7.87962 8.59163L7.74181 8.60357ZM10.9618 9.38257C10.8204 9.17444 10.7438 9.00257 10.732 8.86695C10.7199 8.72696 10.7493 8.63406 10.8203 8.58825C11.0602 8.45729 11.3967 8.37306 11.8298 8.33556C12.2673 8.29768 12.5846 8.37379 12.7817 8.56387C12.9785 8.74958 13.0942 9.04148 13.1286 9.43958L13.2184 10.4764L13.4415 10.4571C13.5159 10.4506 13.5765 10.4895 13.6235 10.5735C13.6748 10.6572 13.7071 10.7757 13.7204 10.9288C13.7336 11.0819 13.7073 11.2362 13.6414 11.3918C13.58 11.547 13.4836 11.6302 13.3523 11.6416C13.1161 11.6621 12.9203 11.6151 12.765 11.5007C12.6948 11.4539 12.639 11.3948 12.5976 11.3235C12.4183 11.5947 12.1165 11.7486 11.6921 11.7853C11.3728 11.813 11.0939 11.7225 10.8555 11.514C10.617 11.3055 10.4844 11.0459 10.4575 10.7353C10.3957 10.0222 10.7914 9.62872 11.6445 9.55486L12.0054 9.52361L11.9997 9.45799C11.9898 9.34425 11.9639 9.27377 11.9219 9.24655C11.8839 9.21459 11.797 9.20447 11.6614 9.21622C11.4952 9.23061 11.262 9.28606 10.9618 9.38257ZM11.5913 10.5445C11.5996 10.6408 11.6323 10.7129 11.6894 10.7608C11.746 10.8044 11.8137 10.8228 11.8925 10.816C11.9756 10.8088 12.0471 10.7695 12.1071 10.6982L12.0633 10.1929L11.8796 10.2089C11.6696 10.227 11.5735 10.3389 11.5913 10.5445ZM15.6439 11.3374C15.6466 11.368 15.4904 11.397 15.1754 11.4242C14.7368 11.449 14.516 11.4439 14.513 11.4089L14.3289 9.28277L14.1583 9.29754C14.0445 9.30739 13.9618 9.21758 13.9102 9.02812C13.8965 8.97201 13.8872 8.91552 13.8823 8.85865C13.8705 8.72303 13.885 8.58514 13.9258 8.44498C13.9879 8.24567 14.102 8.13882 14.2683 8.12443C14.4345 8.11004 14.5867 8.13653 14.7247 8.20391C14.8628 8.2713 14.9571 8.34246 15.0077 8.41742C15.2628 8.15732 15.5807 8.0108 15.9613 7.97784C16.3419 7.94489 16.6264 8.02383 16.8148 8.21467C17.0032 8.40551 17.1177 8.73498 17.1582 9.20308L17.3287 11.1717C17.3332 11.2242 17.1474 11.2667 16.7712 11.2993C16.3993 11.3315 16.2111 11.3214 16.2066 11.2689L16.0424 9.37241C16.0234 9.15368 15.9374 9.05094 15.7843 9.0642C15.7405 9.06798 15.681 9.09297 15.6057 9.13916C15.5299 9.18098 15.4819 9.21158 15.4615 9.23098L15.6439 11.3374ZM17.6282 6.63027C17.6221 6.56027 17.8182 6.50804 18.2163 6.47357C18.5892 6.4545 18.7776 6.46684 18.7814 6.51058L18.9996 9.03042L19.5453 7.77331C19.5702 7.70504 19.7533 7.65613 20.0945 7.62659C20.4358 7.59704 20.6564 7.59998 20.7564 7.63539L20.0238 9.10041L21.1678 10.8591C21.178 10.8759 21.096 10.8962 20.9218 10.9201C20.7523 10.948 20.6107 10.9669 20.497 10.9767C20.077 11.0131 19.85 11.0129 19.816 10.9762L19.0402 9.57564L19.1658 11.0259C19.1707 11.0827 18.9807 11.1278 18.5957 11.1612C18.2151 11.1941 18.0225 11.1843 18.018 11.1319L17.6282 6.63027Z" fill="black"/>
<g filter="url(#filter0_d_7234_91558)">
<mask id="path-13-outside-1_7234_91558" maskUnits="userSpaceOnUse" x="10.7754" y="15.2351" width="6.83225" height="9.50738" fill="black">
<rect fill="white" x="10.7754" y="15.2351" width="6.83225" height="9.50738"/>
<path d="M16.1404 23.3246L12.8739 23.6244C12.6444 23.6454 12.4623 23.4372 12.3279 22.9998C12.2587 22.7614 12.2182 22.58 12.2063 22.4554C12.1944 22.3308 12.2062 22.247 12.2418 22.2041C13.5661 20.5547 14.2022 19.4578 14.1501 18.9136C14.1325 18.7301 14.0702 18.5969 13.963 18.5141C13.8624 18.4308 13.7071 18.3987 13.4972 18.418C13.2939 18.4366 13.0911 18.4949 12.8887 18.5929C12.6929 18.6902 12.5404 18.7902 12.4311 18.8928C12.1458 18.6081 11.9376 18.2998 11.8066 17.9679C11.7631 17.8594 11.737 17.7593 11.7282 17.6675C11.7188 17.5692 11.7264 17.4759 11.7511 17.3876C11.7872 17.2123 12.0146 17.0294 12.433 16.8389C12.858 16.6478 13.3132 16.5299 13.7986 16.4854C15.2678 16.3506 16.0649 16.9355 16.1898 18.2403C16.245 18.8173 16.1044 19.4222 15.7679 20.055C15.4308 20.6812 15.0206 21.2347 14.5373 21.7156L16.5172 21.4546C16.5833 21.7991 16.6285 22.0992 16.653 22.3549C16.6775 22.6106 16.6457 22.8318 16.5577 23.0184C16.4697 23.2051 16.3306 23.3071 16.1404 23.3246Z"/>
</mask>
<path d="M16.1404 23.3246L12.8739 23.6244C12.6444 23.6454 12.4623 23.4372 12.3279 22.9998C12.2587 22.7614 12.2182 22.58 12.2063 22.4554C12.1944 22.3308 12.2062 22.247 12.2418 22.2041C13.5661 20.5547 14.2022 19.4578 14.1501 18.9136C14.1325 18.7301 14.0702 18.5969 13.963 18.5141C13.8624 18.4308 13.7071 18.3987 13.4972 18.418C13.2939 18.4366 13.0911 18.4949 12.8887 18.5929C12.6929 18.6902 12.5404 18.7902 12.4311 18.8928C12.1458 18.6081 11.9376 18.2998 11.8066 17.9679C11.7631 17.8594 11.737 17.7593 11.7282 17.6675C11.7188 17.5692 11.7264 17.4759 11.7511 17.3876C11.7872 17.2123 12.0146 17.0294 12.433 16.8389C12.858 16.6478 13.3132 16.5299 13.7986 16.4854C15.2678 16.3506 16.0649 16.9355 16.1898 18.2403C16.245 18.8173 16.1044 19.4222 15.7679 20.055C15.4308 20.6812 15.0206 21.2347 14.5373 21.7156L16.5172 21.4546C16.5833 21.7991 16.6285 22.0992 16.653 22.3549C16.6775 22.6106 16.6457 22.8318 16.5577 23.0184C16.4697 23.2051 16.3306 23.3071 16.1404 23.3246Z" fill="white"/>
<path d="M12.3279 22.9998L11.695 23.1809L11.6981 23.191L12.3279 22.9998ZM12.2418 22.2041L12.75 22.6252L12.7563 22.6173L12.2418 22.2041ZM13.963 18.5141L13.5436 19.0203L13.5613 19.0345L13.963 18.5141ZM12.8887 18.5929L12.5996 18L12.5934 18.0031L12.8887 18.5929ZM12.4311 18.8928L11.9664 19.3578L12.8833 19.3734L12.4311 18.8928ZM11.8066 17.9679L12.4194 17.7283L12.4182 17.7251L11.8066 17.9679ZM11.7511 17.3876L12.3858 17.5668L12.3964 17.5229L11.7511 17.3876ZM12.433 16.8389L12.1607 16.2383L12.1579 16.2396L12.433 16.8389ZM15.7679 20.055L16.3485 20.3686L16.35 20.3656L15.7679 20.055ZM14.5373 21.7156L14.0715 21.2482L14.626 22.3684L14.5373 21.7156ZM16.5172 21.4546L17.1643 21.3331L16.4285 20.8018L16.5172 21.4546ZM16.1404 23.3246L16.0776 22.6689L12.8112 22.9687L12.8739 23.6244L12.9367 24.28L16.2031 23.9803L16.1404 23.3246ZM12.8739 23.6244L12.8112 22.9687C12.8654 22.9637 12.9262 22.9728 12.9816 22.998C13.033 23.0214 13.0577 23.0484 13.0607 23.0519C13.0629 23.0543 13.0504 23.0404 13.0291 22.9971C13.0083 22.9546 12.9837 22.8933 12.9576 22.8086L12.3279 22.9998L11.6981 23.191C11.777 23.4476 11.8901 23.7107 12.0698 23.9162C12.2692 24.1442 12.5679 24.3139 12.9367 24.28L12.8739 23.6244ZM12.3279 22.9998L12.9607 22.8188C12.8941 22.5894 12.868 22.4562 12.8622 22.3952L12.2063 22.4554L11.5504 22.5156C11.5684 22.7037 11.6233 22.9334 11.695 23.1808L12.3279 22.9998ZM12.2063 22.4554L12.8622 22.3952C12.859 22.3624 12.8625 22.3662 12.8586 22.3936C12.8557 22.4145 12.8396 22.517 12.7499 22.6251L12.2418 22.2041L11.7336 21.783C11.6084 21.9342 11.5686 22.0999 11.5538 22.2046C11.5381 22.3158 11.5416 22.4238 11.5504 22.5156L12.2063 22.4554ZM12.2418 22.2041L12.7563 22.6173C13.4274 21.7814 13.9406 21.0657 14.2825 20.4762C14.4534 20.1814 14.59 19.9039 14.681 19.6481C14.7692 19.4004 14.832 19.1256 14.806 18.8535L14.1501 18.9136L13.4942 18.9738C13.4942 18.9738 13.4971 19.0401 13.4392 19.2027C13.3842 19.3572 13.2888 19.559 13.1417 19.8126C12.8474 20.32 12.3804 20.9773 11.7272 21.7909L12.2418 22.2041ZM14.1501 18.9136L14.806 18.8535C14.7776 18.5568 14.6635 18.2245 14.3646 17.9937L13.963 18.5141L13.5613 19.0345C13.5442 19.0213 13.5293 19.0063 13.5172 18.9908C13.5052 18.9756 13.4977 18.9622 13.4935 18.9533C13.4857 18.9365 13.4908 18.9388 13.4942 18.9738L14.1501 18.9136ZM13.963 18.5141L14.3824 18.0079C14.0842 17.7608 13.7156 17.7365 13.4345 17.7623L13.4972 18.418L13.56 19.0736C13.5889 19.071 13.6098 19.0707 13.6238 19.0712C13.6379 19.0716 13.6427 19.0729 13.6401 19.0723C13.6343 19.0711 13.5927 19.0611 13.5436 19.0203L13.963 18.5141ZM13.4972 18.418L13.4345 17.7623C13.1448 17.7889 12.8657 17.8713 12.5996 18.0001L12.8887 18.5929L13.1777 19.1856C13.3164 19.1186 13.443 19.0844 13.56 19.0736L13.4972 18.418ZM12.8887 18.5929L12.5934 18.0031C12.364 18.1172 12.1508 18.2507 11.9789 18.4122L12.4311 18.8928L12.8833 19.3734C12.9299 19.3297 13.0218 19.2632 13.184 19.1826L12.8887 18.5929ZM12.4311 18.8928L12.8958 18.4278C12.6666 18.1991 12.5131 17.9656 12.4194 17.7283L11.8066 17.9679L11.1938 18.2075C11.3622 18.6341 11.625 19.0172 11.9664 19.3578L12.4311 18.8928ZM11.8066 17.9679L12.4182 17.7251C12.3922 17.6604 12.3856 17.6225 12.3841 17.6073L11.7282 17.6675L11.0723 17.7277C11.0885 17.8962 11.1341 18.0585 11.1951 18.2107L11.8066 17.9679ZM11.7282 17.6675L12.3841 17.6073C12.3818 17.5832 12.3845 17.5715 12.3858 17.5668L11.7511 17.3876L11.1164 17.2084C11.0684 17.3803 11.0558 17.5551 11.0723 17.7277L11.7282 17.6675ZM11.7511 17.3876L12.3964 17.5229C12.3823 17.5913 12.3553 17.6327 12.3455 17.646C12.3363 17.6585 12.3375 17.653 12.3631 17.6324C12.417 17.5891 12.5237 17.5222 12.7081 17.4382L12.433 16.8389L12.1579 16.2396C11.9239 16.3461 11.7077 16.466 11.5342 16.6055C11.3715 16.7365 11.1687 16.9469 11.1057 17.2523L11.7511 17.3876ZM12.433 16.8389L12.7053 17.4395C13.0611 17.2795 13.4452 17.1793 13.8614 17.1411L13.7986 16.4854L13.7359 15.8297C13.1813 15.8806 12.6549 16.0161 12.1607 16.2383L12.433 16.8389ZM13.7986 16.4854L13.8614 17.1411C14.5127 17.0813 14.8928 17.194 15.1096 17.3532C15.3104 17.5005 15.4831 17.7706 15.5339 18.3005L16.1898 18.2403L16.8457 18.1801C16.7715 17.4052 16.4833 16.7305 15.887 16.2929C15.3068 15.867 14.5537 15.7547 13.7359 15.8297L13.7986 16.4854ZM16.1898 18.2403L15.5339 18.3005C15.5741 18.7216 15.4763 19.1979 15.1858 19.7443L15.7679 20.055L16.35 20.3656C16.7324 19.6465 16.9158 18.913 16.8457 18.1801L16.1898 18.2403ZM15.7679 20.055L15.1874 19.7413C14.8795 20.3134 14.5073 20.8146 14.0715 21.2482L14.5373 21.7156L15.0031 22.1831C15.534 21.6549 15.9822 21.049 16.3485 20.3686L15.7679 20.055ZM14.5373 21.7156L14.626 22.3684L16.6059 22.1073L16.5172 21.4546L16.4285 20.8018L14.4487 21.0629L14.5373 21.7156ZM16.5172 21.4546L15.8701 21.5761C15.9335 21.907 15.9751 22.1858 15.9971 22.4151L16.653 22.3549L17.3089 22.2947C17.2819 22.0125 17.233 21.6911 17.1643 21.3331L16.5172 21.4546ZM16.653 22.3549L15.9971 22.4151C16.013 22.5815 15.9883 22.679 15.9614 22.7359L16.5577 23.0184L17.1539 23.3009C17.3031 22.9845 17.3419 22.6397 17.3089 22.2947L16.653 22.3549ZM16.5577 23.0184L15.9614 22.7359C15.9549 22.7498 15.9619 22.7288 15.9961 22.7037C16.0123 22.6918 16.0298 22.6827 16.0464 22.6767C16.0627 22.6708 16.074 22.6693 16.0776 22.6689L16.1404 23.3246L16.2031 23.9803C16.6472 23.9395 16.9768 23.6767 17.1539 23.3009L16.5577 23.0184Z" fill="black" mask="url(#path-13-outside-1_7234_91558)"/>
</g>
<defs>
<filter id="filter0_d_7234_91558" x="11.0654" y="15.8081" width="6.25439" height="9.13474" filterUnits="userSpaceOnUse" color-interpolation-filters="sRGB">
<feFlood flood-opacity="0" result="BackgroundImageFix"/>
<feColorMatrix in="SourceAlpha" type="matrix" values="0 0 0 0 0 0 0 0 0 0 0 0 0 0 0 0 0 0 127 0" result="hardAlpha"/>
<feOffset dy="0.658663"/>
<feComposite in2="hardAlpha" operator="out"/>
<feColorMatrix type="matrix" values="0 0 0 0 0 0 0 0 0 0 0 0 0 0 0 0 0 0 0.8 0"/>
<feBlend mode="normal" in2="BackgroundImageFix" result="effect1_dropShadow_7234_91558"/>
<feBlend mode="normal" in="SourceGraphic" in2="effect1_dropShadow_7234_91558" result="shape"/>
</filter>
</defs>
</svg>
