<svg width="27" height="33" viewBox="0 0 27 33" fill="none" xmlns="http://www.w3.org/2000/svg">
<path d="M13.5562 5.22238C13.7268 5.1539 13.9153 5.14443 14.0918 5.19549L24.9789 8.34427C25.3366 8.44772 25.5803 8.77838 25.5733 9.15068L25.2411 26.8021C25.2353 27.1093 25.0589 27.3878 24.7835 27.5243L15.4005 32.1752C15.1942 32.2774 14.9546 32.2886 14.7397 32.2061L4.95675 28.4485C4.66593 28.3368 4.46307 28.0706 4.43258 27.7605L2.70756 10.218C2.67175 9.85381 2.88057 9.50972 3.22011 9.37336L13.5562 5.22238Z" fill="black"/>
<path d="M13.3379 0.599609L13.4268 0.616211L26.1699 4.06934C26.4252 4.13858 26.6 4.37324 26.5947 4.6377L26.2119 23.7275C26.2075 23.9476 26.0776 24.1456 25.8779 24.2383L14.8828 29.3447C14.7452 29.4086 14.5881 29.4156 14.4453 29.3643L2.97266 25.2363C2.76476 25.1614 2.6178 24.9737 2.59473 24.7539L0.604492 5.78516C0.577118 5.52434 0.729167 5.2779 0.974609 5.18555L13.0723 0.633789C13.1572 0.601821 13.2485 0.589885 13.3379 0.599609Z" fill="#E97D15" stroke="black" stroke-width="0.823329"/>
<mask id="mask0_7234_91575" style="mask-type:alpha" maskUnits="userSpaceOnUse" x="1" y="1" width="26" height="28">
<path d="M13.2673 1L26.1862 4.50058L25.798 23.8221L14.648 29L3.01521 24.8139L1.00018 5.61552L13.2673 1Z" fill="#D9D9D9"/>
</mask>
<g mask="url(#mask0_7234_91575)">
<path d="M13.2896 5.60809V0.652832L26.9508 3.95164L21.2915 8.08985L13.2896 5.60809Z" fill="#F99611"/>
<path d="M13.2896 5.8032V0.504883L-1.41854 3.82983L4.85057 8.48577L13.2896 5.8032Z" fill="white"/>
<path d="M14.6616 24.7873L14.6605 29.7554L1.04678 25.8639L6.72039 22.3046L14.6616 24.7873Z" fill="#DF621B"/>
<path d="M14.6616 24.592V29.8936L28.1045 25.728L23.187 21.6659L14.6616 24.592Z" fill="#BD3B0D"/>
</g>
<path d="M13.3856 3.5896L23.4865 6.4867L23.593 21.9911L14.6778 26.3441L5.41276 23.1499L3.69681 7.65456L13.3856 3.5896Z" fill="#660138"/>
<mask id="mask1_7234_91575" style="mask-type:alpha" maskUnits="userSpaceOnUse" x="3" y="3" width="21" height="24">
<path d="M13.3856 3.58911L23.4865 6.48621L23.593 21.9906L14.6778 26.3436L5.41276 23.1494L3.69681 7.65407L13.3856 3.58911Z" fill="#660138"/>
</mask>
<g mask="url(#mask1_7234_91575)">
<rect x="1.79932" y="7.24561" width="21.9871" height="10.8274" transform="rotate(-10.4686 1.79932 7.24561)" fill="black"/>
<rect x="1.79932" y="4.49658" width="21.9871" height="10.8274" transform="rotate(-8.26861 1.79932 4.49658)" fill="#D7590B"/>
</g>
<path d="M8.03101 11.9437C8.03707 12.0137 7.8323 12.0666 7.4167 12.1026C6.99673 12.139 6.7839 12.1244 6.77822 12.0587L6.40778 7.78027C6.39452 7.62715 6.46882 7.54359 6.63069 7.52957L7.88405 7.42105C9.0346 7.32144 9.6487 7.72004 9.72635 8.61685C9.74983 8.88809 9.71873 9.1398 9.63306 9.372C9.547 9.59983 9.41342 9.7877 9.23229 9.93561L10.1784 11.2421C10.1525 11.3501 10.0492 11.4802 9.86845 11.6325C9.62225 11.8434 9.41385 11.9562 9.24323 11.9709C9.07262 11.9857 8.94045 11.9354 8.84672 11.8201L8.10546 10.4365L7.90204 10.4541L8.03101 11.9437ZM7.74181 8.60357L7.82704 9.58788L7.85985 9.58504C8.27545 9.54905 8.46829 9.35826 8.43836 9.01266C8.42473 8.85517 8.37313 8.74283 8.28357 8.67566C8.19801 8.60373 8.06336 8.57573 7.87962 8.59163L7.74181 8.60357ZM10.9618 9.38257C10.8204 9.17444 10.7438 9.00257 10.732 8.86695C10.7199 8.72696 10.7493 8.63406 10.8203 8.58825C11.0602 8.45729 11.3967 8.37306 11.8298 8.33556C12.2673 8.29768 12.5846 8.37379 12.7817 8.56387C12.9785 8.74958 13.0942 9.04148 13.1286 9.43958L13.2184 10.4764L13.4415 10.4571C13.5159 10.4506 13.5765 10.4895 13.6235 10.5735C13.6748 10.6572 13.7071 10.7757 13.7204 10.9288C13.7336 11.0819 13.7073 11.2362 13.6414 11.3918C13.58 11.547 13.4836 11.6302 13.3523 11.6416C13.1161 11.6621 12.9203 11.6151 12.765 11.5007C12.6948 11.4539 12.639 11.3948 12.5976 11.3235C12.4183 11.5947 12.1165 11.7486 11.6921 11.7853C11.3728 11.813 11.0939 11.7225 10.8555 11.514C10.617 11.3055 10.4844 11.0459 10.4575 10.7353C10.3957 10.0222 10.7914 9.62872 11.6445 9.55486L12.0054 9.52361L11.9997 9.45799C11.9898 9.34425 11.9639 9.27377 11.9219 9.24655C11.8839 9.21459 11.797 9.20447 11.6614 9.21622C11.4952 9.23061 11.262 9.28606 10.9618 9.38257ZM11.5913 10.5445C11.5996 10.6408 11.6323 10.7129 11.6894 10.7608C11.746 10.8044 11.8137 10.8228 11.8925 10.816C11.9756 10.8088 12.0471 10.7695 12.1071 10.6982L12.0633 10.1929L11.8796 10.2089C11.6696 10.227 11.5735 10.3389 11.5913 10.5445ZM15.6439 11.3374C15.6466 11.368 15.4904 11.397 15.1754 11.4242C14.7368 11.449 14.516 11.4439 14.513 11.4089L14.3289 9.28277L14.1583 9.29754C14.0445 9.30739 13.9618 9.21758 13.9102 9.02812C13.8965 8.97201 13.8872 8.91552 13.8823 8.85865C13.8705 8.72303 13.885 8.58514 13.9258 8.44498C13.9879 8.24567 14.102 8.13882 14.2683 8.12443C14.4345 8.11004 14.5867 8.13653 14.7247 8.20391C14.8628 8.2713 14.9571 8.34246 15.0077 8.41742C15.2628 8.15732 15.5807 8.0108 15.9613 7.97784C16.3419 7.94489 16.6264 8.02383 16.8148 8.21467C17.0032 8.40551 17.1177 8.73498 17.1582 9.20308L17.3287 11.1717C17.3332 11.2242 17.1474 11.2667 16.7712 11.2993C16.3993 11.3315 16.2111 11.3214 16.2066 11.2689L16.0424 9.37241C16.0234 9.15368 15.9374 9.05094 15.7843 9.0642C15.7405 9.06798 15.681 9.09297 15.6057 9.13916C15.5299 9.18098 15.4819 9.21158 15.4615 9.23098L15.6439 11.3374ZM17.6282 6.63027C17.6221 6.56027 17.8182 6.50804 18.2163 6.47357C18.5892 6.4545 18.7776 6.46684 18.7814 6.51058L18.9996 9.03042L19.5453 7.77331C19.5702 7.70504 19.7533 7.65613 20.0945 7.62659C20.4358 7.59704 20.6564 7.59998 20.7564 7.63539L20.0238 9.10041L21.1678 10.8591C21.178 10.8759 21.096 10.8962 20.9218 10.9201C20.7523 10.948 20.6107 10.9669 20.497 10.9767C20.077 11.0131 19.85 11.0129 19.816 10.9762L19.0402 9.57564L19.1658 11.0259C19.1707 11.0827 18.9807 11.1278 18.5957 11.1612C18.2151 11.1941 18.0225 11.1843 18.018 11.1319L17.6282 6.63027Z" fill="black"/>
<g filter="url(#filter0_d_7234_91575)">
<mask id="path-13-outside-1_7234_91575" maskUnits="userSpaceOnUse" x="9.77955" y="14.1267" width="7.82807" height="9.59876" fill="black">
<rect fill="white" x="9.77955" y="14.1267" width="7.82807" height="9.59876"/>
<path d="M12.0005 21.9413C11.9829 21.7577 12.0091 21.547 12.0789 21.3091C12.1482 21.0646 12.2188 20.8696 12.2909 20.7241C12.3624 20.572 12.4047 20.4954 12.4178 20.4942C12.8202 20.6887 13.2313 20.7668 13.6511 20.7282C13.9134 20.7042 14.1183 20.6325 14.2657 20.5131C14.4196 20.3931 14.4878 20.2414 14.4702 20.0578C14.452 19.8676 14.365 19.7533 14.2091 19.7147C14.0598 19.6754 13.8235 19.6608 13.5002 19.6706L13.146 19.7031C13.0673 19.7103 12.9828 19.6222 12.8924 19.4386C12.808 19.248 12.757 19.0608 12.7395 18.8772C12.71 18.5691 12.7867 18.4033 12.9698 18.3799L13.2541 18.3438C13.4312 18.3276 13.6102 18.2616 13.791 18.1458C13.9777 18.0228 14.0636 17.8826 14.0485 17.7253C14.0221 17.4499 13.763 17.3348 13.2711 17.3799C12.9038 17.4136 12.5565 17.5183 12.2292 17.6938C11.8832 17.1898 11.6961 16.7903 11.6679 16.4952C11.639 16.1936 11.824 15.9484 12.2228 15.7597C12.6281 15.5704 13.1456 15.4468 13.7753 15.3891C14.405 15.3313 14.9095 15.4173 15.2887 15.647C15.668 15.8768 15.8793 16.2179 15.9226 16.6703C15.9985 17.4636 15.7158 18.1047 15.0745 18.5935C15.9329 18.852 16.4004 19.3813 16.477 20.1812C16.5366 20.8041 16.3651 21.3291 15.9627 21.7563C15.5596 22.1769 14.9482 22.4248 14.1283 22.5001C13.6101 22.5476 13.131 22.5188 12.6908 22.4137C12.25 22.302 12.0199 22.1446 12.0005 21.9413Z"/>
</mask>
<path d="M12.0005 21.9413C11.9829 21.7577 12.0091 21.547 12.0789 21.3091C12.1482 21.0646 12.2188 20.8696 12.2909 20.7241C12.3624 20.572 12.4047 20.4954 12.4178 20.4942C12.8202 20.6887 13.2313 20.7668 13.6511 20.7282C13.9134 20.7042 14.1183 20.6325 14.2657 20.5131C14.4196 20.3931 14.4878 20.2414 14.4702 20.0578C14.452 19.8676 14.365 19.7533 14.2091 19.7147C14.0598 19.6754 13.8235 19.6608 13.5002 19.6706L13.146 19.7031C13.0673 19.7103 12.9828 19.6222 12.8924 19.4386C12.808 19.248 12.757 19.0608 12.7395 18.8772C12.71 18.5691 12.7867 18.4033 12.9698 18.3799L13.2541 18.3438C13.4312 18.3276 13.6102 18.2616 13.791 18.1458C13.9777 18.0228 14.0636 17.8826 14.0485 17.7253C14.0221 17.4499 13.763 17.3348 13.2711 17.3799C12.9038 17.4136 12.5565 17.5183 12.2292 17.6938C11.8832 17.1898 11.6961 16.7903 11.6679 16.4952C11.639 16.1936 11.824 15.9484 12.2228 15.7597C12.6281 15.5704 13.1456 15.4468 13.7753 15.3891C14.405 15.3313 14.9095 15.4173 15.2887 15.647C15.668 15.8768 15.8793 16.2179 15.9226 16.6703C15.9985 17.4636 15.7158 18.1047 15.0745 18.5935C15.9329 18.852 16.4004 19.3813 16.477 20.1812C16.5366 20.8041 16.3651 21.3291 15.9627 21.7563C15.5596 22.1769 14.9482 22.4248 14.1283 22.5001C13.6101 22.5476 13.131 22.5188 12.6908 22.4137C12.25 22.302 12.0199 22.1446 12.0005 21.9413Z" fill="white"/>
<path d="M12.0789 21.3091L12.7113 21.4967L12.713 21.4906L12.0789 21.3091ZM12.2909 20.7241L12.8818 21.0181L12.8875 21.0058L12.2909 20.7241ZM12.4178 20.4942L12.703 19.9017L12.3551 19.8385L12.4178 20.4942ZM14.2657 20.5131L13.8592 19.9932L13.8496 20.0009L14.2657 20.5131ZM14.2091 19.7147L14.0439 20.3515L14.0529 20.3537L14.2091 19.7147ZM13.5002 19.6706L13.4777 19.0125L13.4375 19.0149L13.5002 19.6706ZM12.8924 19.4386L12.29 19.7031L12.3014 19.7274L12.8924 19.4386ZM12.9698 18.3799L12.8845 17.7267L12.8837 17.7268L12.9698 18.3799ZM13.2541 18.3438L13.1914 17.6882L13.1688 17.6906L13.2541 18.3438ZM13.791 18.1458L14.1481 18.7005L14.155 18.696L13.791 18.1458ZM12.2292 17.6938L11.6863 18.0648L12.5426 18.2742L12.2292 17.6938ZM12.2228 15.7597L11.9419 15.163L11.9389 15.1645L12.2228 15.7597ZM15.2887 15.647L14.9487 16.2097L15.2887 15.647ZM15.0745 18.5935L14.6736 18.0694L14.8865 19.2239L15.0745 18.5935ZM15.9627 21.7563L16.4395 22.2126L16.4433 22.2086L15.9627 21.7563ZM12.6908 22.4137L12.5312 23.052L12.54 23.0541L12.6908 22.4137ZM12.0005 21.9413L12.6564 21.8811C12.649 21.8044 12.6573 21.6804 12.7112 21.4967L12.0789 21.3091L11.4466 21.1214C11.3609 21.4135 11.3168 21.7111 11.3446 22.0015L12.0005 21.9413ZM12.0789 21.3091L12.713 21.4906C12.7766 21.2658 12.8345 21.1133 12.8816 21.018L12.2909 20.7241L11.7002 20.4301C11.6032 20.6259 11.5197 20.8633 11.4449 21.1275L12.0789 21.3091ZM12.2909 20.7241L12.8875 21.0058C12.9216 20.9333 12.9429 20.8915 12.9535 20.8722C12.9602 20.8601 12.9547 20.8714 12.9399 20.8922C12.9338 20.9009 12.9113 20.9322 12.8745 20.9684C12.8559 20.9867 12.8206 21.0192 12.7696 21.0516C12.7237 21.0807 12.6231 21.1368 12.4805 21.1498L12.4178 20.4942L12.3551 19.8385C12.2109 19.8517 12.1084 19.9085 12.0604 19.939C12.0073 19.9727 11.9697 20.0071 11.9486 20.0279C11.9066 20.0691 11.8781 20.1078 11.8651 20.1262C11.8364 20.1665 11.8135 20.2067 11.799 20.2329C11.7673 20.2903 11.7317 20.3628 11.6943 20.4423L12.2909 20.7241ZM12.4178 20.4942L12.1326 21.0866C12.6366 21.3303 13.1675 21.434 13.7138 21.3839L13.6511 20.7282L13.5883 20.0726C13.295 20.0995 13.0038 20.0472 12.703 19.9017L12.4178 20.4942ZM13.6511 20.7282L13.7138 21.3839C14.0572 21.3524 14.4014 21.2523 14.6817 21.0253L14.2657 20.5131L13.8496 20.0009C13.8352 20.0126 13.7696 20.0559 13.5883 20.0726L13.6511 20.7282ZM14.2657 20.5131L14.6721 21.0329C14.9901 20.7851 15.1666 20.4204 15.1261 19.9976L14.4702 20.0578L13.8143 20.118C13.8134 20.1086 13.8136 20.0765 13.831 20.0377C13.8476 20.0006 13.8666 19.9876 13.8592 19.9933L14.2657 20.5131ZM14.4702 20.0578L15.1261 19.9976C15.1091 19.8197 15.0542 19.6147 14.9152 19.4321C14.7694 19.2406 14.5714 19.1267 14.3653 19.0756L14.2091 19.7147L14.0529 20.3537C14.0027 20.3413 13.9261 20.3038 13.8674 20.2267C13.8155 20.1585 13.8131 20.1058 13.8143 20.118L14.4702 20.0578ZM14.2091 19.7147L14.3743 19.0779C14.1275 19.0131 13.8107 19.0023 13.4777 19.0125L13.5002 19.6706L13.5228 20.3287C13.8363 20.3192 13.9921 20.3378 14.0439 20.3514L14.2091 19.7147ZM13.5002 19.6706L13.4375 19.0149L13.0833 19.0474L13.146 19.7031L13.2088 20.3587L13.563 20.3262L13.5002 19.6706ZM13.146 19.7031L13.0833 19.0474C13.3331 19.0245 13.4781 19.1665 13.4985 19.1878C13.5243 19.2147 13.516 19.2159 13.4835 19.1498L12.8924 19.4386L12.3014 19.7274C12.3592 19.8448 12.4383 19.9819 12.5487 20.097C12.6537 20.2064 12.8802 20.3889 13.2088 20.3587L13.146 19.7031ZM12.8924 19.4386L13.4948 19.1742C13.4355 19.04 13.4054 18.9217 13.3954 18.817L12.7395 18.8772L12.0836 18.9374C12.1087 19.1999 12.1806 19.4559 12.29 19.7031L12.8924 19.4386ZM12.7395 18.8772L13.3954 18.817C13.3909 18.7707 13.3923 18.7469 13.3929 18.7406C13.3936 18.7335 13.3924 18.7585 13.3731 18.8001C13.352 18.8458 13.3112 18.9062 13.2418 18.9567C13.1727 19.0071 13.1036 19.0269 13.0559 19.033L12.9698 18.3799L12.8837 17.7268C12.5704 17.7668 12.3109 17.9538 12.1767 18.2434C12.0664 18.4817 12.0645 18.7381 12.0836 18.9374L12.7395 18.8772ZM12.9698 18.3799L13.0551 19.0331L13.3395 18.9971L13.2541 18.3438L13.1688 17.6906L12.8845 17.7267L12.9698 18.3799ZM13.2541 18.3438L13.3169 18.9995C13.6186 18.9718 13.8971 18.8613 14.1481 18.7005L13.791 18.1458L13.4339 17.591C13.3233 17.6619 13.2439 17.6834 13.1914 17.6882L13.2541 18.3438ZM13.791 18.1458L14.155 18.696C14.4492 18.5023 14.7518 18.1605 14.7044 17.6651L14.0485 17.7253L13.3926 17.7855C13.3897 17.7552 13.3914 17.7208 13.3998 17.6855C13.4081 17.6504 13.4211 17.6227 13.433 17.6032C13.4551 17.5672 13.4673 17.569 13.427 17.5956L13.791 18.1458ZM14.0485 17.7253L14.7044 17.6651C14.6882 17.4957 14.6321 17.3197 14.5166 17.1617C14.4016 17.0044 14.2523 16.8985 14.1001 16.8309C13.8166 16.705 13.494 16.698 13.2083 16.7243L13.2711 17.3799L13.3338 18.0356C13.4281 18.0269 13.4944 18.0277 13.5377 18.0317C13.5823 18.0358 13.5872 18.0421 13.5686 18.0339C13.546 18.0238 13.4972 17.9955 13.4536 17.9359C13.4094 17.8755 13.3956 17.8172 13.3926 17.7855L14.0485 17.7253ZM13.2711 17.3799L13.2083 16.7243C12.7525 16.7661 12.3201 16.8966 11.9159 17.1134L12.2292 17.6938L12.5426 18.2742C12.7929 18.1399 13.0551 18.0612 13.3338 18.0356L13.2711 17.3799ZM12.2292 17.6938L12.7721 17.3228C12.4357 16.8327 12.335 16.5519 12.3238 16.435L11.6679 16.4952L11.012 16.5554C11.0573 17.0286 11.3308 17.5469 11.6863 18.0648L12.2292 17.6938ZM11.6679 16.4952L12.3238 16.435C12.3238 16.4349 12.3241 16.4379 12.3236 16.4433C12.3231 16.4489 12.322 16.4555 12.32 16.4625C12.3156 16.4778 12.31 16.4849 12.3116 16.4828C12.3187 16.4734 12.3641 16.4225 12.5067 16.355L12.2228 15.7597L11.9389 15.1645C11.6827 15.2857 11.4362 15.4517 11.2583 15.6875C11.0687 15.9388 10.9816 16.2382 11.012 16.5554L11.6679 16.4952ZM12.2228 15.7597L12.5037 16.3564C12.8184 16.2094 13.2554 16.0982 13.8381 16.0447L13.7753 15.3891L13.7126 14.7334C13.0359 14.7955 12.4379 14.9314 11.9419 15.163L12.2228 15.7597ZM13.7753 15.3891L13.8381 16.0447C14.3854 15.9945 14.7324 16.0787 14.9487 16.2097L15.2887 15.647L15.6287 15.0843C15.0865 14.7558 14.4246 14.6681 13.7126 14.7334L13.7753 15.3891ZM15.2887 15.647L14.9487 16.2097C15.1436 16.3278 15.2427 16.4793 15.2667 16.7305L15.9226 16.6703L16.5785 16.6101C16.516 15.9565 16.1924 15.4258 15.6287 15.0843L15.2887 15.647ZM15.9226 16.6703L15.2667 16.7305C15.3206 17.294 15.1377 17.7158 14.6736 18.0694L15.0745 18.5935L15.4753 19.1176C16.294 18.4937 16.6764 17.6332 16.5785 16.6101L15.9226 16.6703ZM15.0745 18.5935L14.8865 19.2239C15.2293 19.3271 15.4429 19.4687 15.5757 19.619C15.7044 19.7647 15.7941 19.9599 15.821 20.2414L16.477 20.1812L17.1329 20.121C17.0832 19.6025 16.901 19.1332 16.5622 18.7497C16.2275 18.3708 15.778 18.1184 15.2624 17.9631L15.0745 18.5935ZM16.477 20.1812L15.821 20.2414C15.8639 20.6896 15.746 21.0239 15.4821 21.304L15.9627 21.7563L16.4433 22.2086C16.9843 21.6343 17.2092 20.9186 17.1329 20.121L16.477 20.1812ZM15.9627 21.7563L15.486 21.2999C15.2298 21.5673 14.7919 21.7777 14.0655 21.8444L14.1283 22.5001L14.191 23.1557C15.1044 23.0719 15.8895 22.7865 16.4394 22.2126L15.9627 21.7563ZM14.1283 22.5001L14.0655 21.8444C13.6083 21.8864 13.2022 21.8595 12.8417 21.7734L12.6908 22.4137L12.54 23.0541C13.0597 23.1782 13.612 23.2089 14.191 23.1557L14.1283 22.5001ZM12.6908 22.4137L12.8505 21.7755C12.7619 21.7531 12.6938 21.7308 12.6432 21.7105C12.5917 21.6898 12.5665 21.6745 12.5585 21.669C12.5505 21.6635 12.5707 21.6754 12.5961 21.7121C12.6244 21.753 12.6497 21.8116 12.6564 21.8811L12.0005 21.9413L11.3446 22.0015C11.3791 22.3622 11.6019 22.6076 11.8168 22.7546C12.0239 22.8964 12.2768 22.9875 12.5312 23.0519L12.6908 22.4137Z" fill="black" mask="url(#path-13-outside-1_7234_91575)"/>
</g>
<defs>
<filter id="filter0_d_7234_91575" x="11.0059" y="14.7134" width="6.1416" height="9.12595" filterUnits="userSpaceOnUse" color-interpolation-filters="sRGB">
<feFlood flood-opacity="0" result="BackgroundImageFix"/>
<feColorMatrix in="SourceAlpha" type="matrix" values="0 0 0 0 0 0 0 0 0 0 0 0 0 0 0 0 0 0 127 0" result="hardAlpha"/>
<feOffset dy="0.658663"/>
<feComposite in2="hardAlpha" operator="out"/>
<feColorMatrix type="matrix" values="0 0 0 0 0 0 0 0 0 0 0 0 0 0 0 0 0 0 0.8 0"/>
<feBlend mode="normal" in2="BackgroundImageFix" result="effect1_dropShadow_7234_91575"/>
<feBlend mode="normal" in="SourceGraphic" in2="effect1_dropShadow_7234_91575" result="shape"/>
</filter>
</defs>
</svg>
