<svg width="27" height="33" viewBox="0 0 27 33" fill="none" xmlns="http://www.w3.org/2000/svg">
<path d="M13.5562 5.22238C13.7268 5.1539 13.9153 5.14443 14.0918 5.19549L24.9789 8.34427C25.3366 8.44772 25.5803 8.77838 25.5733 9.15068L25.2411 26.8021C25.2353 27.1093 25.0589 27.3878 24.7835 27.5243L15.4005 32.1752C15.1942 32.2774 14.9546 32.2886 14.7397 32.2061L4.95675 28.4485C4.66593 28.3368 4.46307 28.0706 4.43258 27.7605L2.70756 10.218C2.67175 9.85381 2.88057 9.50972 3.22011 9.37336L13.5562 5.22238Z" fill="black"/>
<path d="M13.3379 0.599609L13.4268 0.616211L26.1699 4.06934C26.4252 4.13858 26.6 4.37324 26.5947 4.6377L26.2119 23.7275C26.2075 23.9476 26.0776 24.1456 25.8779 24.2383L14.8828 29.3447C14.7452 29.4086 14.5881 29.4156 14.4453 29.3643L2.97266 25.2363C2.76476 25.1614 2.6178 24.9737 2.59473 24.7539L0.604492 5.78516C0.577118 5.52434 0.729167 5.2779 0.974609 5.18555L13.0723 0.633789C13.1572 0.601821 13.2485 0.589885 13.3379 0.599609Z" fill="#FFBF21" stroke="black" stroke-width="0.823329"/>
<mask id="mask0_7233_96170" style="mask-type:alpha" maskUnits="userSpaceOnUse" x="1" y="1" width="26" height="28">
<path d="M13.2673 1L26.1862 4.50058L25.798 23.8221L14.648 29L3.01521 24.8139L1.00018 5.61552L13.2673 1Z" fill="#D9D9D9"/>
</mask>
<g mask="url(#mask0_7233_96170)">
<path d="M13.2896 5.60809V0.652832L26.9508 3.95164L21.2915 8.08985L13.2896 5.60809Z" fill="#FFF23A"/>
<path d="M13.2896 5.8032V0.504883L-1.41854 3.82983L4.85057 8.48577L13.2896 5.8032Z" fill="white"/>
<path d="M14.6616 24.7873L14.6605 29.7554L1.04678 25.8639L6.72039 22.3046L14.6616 24.7873Z" fill="#EF8C21"/>
<path d="M14.6616 24.592V29.8936L28.1045 25.728L23.187 21.6659L14.6616 24.592Z" fill="#DD6310"/>
</g>
<path d="M13.3856 3.5896L23.4865 6.4867L23.593 21.9911L14.6778 26.3441L5.41276 23.1499L3.69681 7.65456L13.3856 3.5896Z" fill="#660138"/>
<mask id="mask1_7233_96170" style="mask-type:alpha" maskUnits="userSpaceOnUse" x="3" y="3" width="21" height="24">
<path d="M13.3856 3.58911L23.4865 6.48621L23.593 21.9906L14.6778 26.3436L5.41276 23.1494L3.69681 7.65407L13.3856 3.58911Z" fill="#660138"/>
</mask>
<g mask="url(#mask1_7233_96170)">
<rect x="1.79932" y="7.24561" width="21.9871" height="10.8274" transform="rotate(-10.4686 1.79932 7.24561)" fill="black"/>
<rect x="1.79932" y="4.49658" width="21.9871" height="10.8274" transform="rotate(-8.26861 1.79932 4.49658)" fill="#F59524"/>
</g>
<path d="M8.03101 11.9437C8.03707 12.0137 7.8323 12.0666 7.4167 12.1026C6.99673 12.139 6.7839 12.1244 6.77822 12.0587L6.40778 7.78027C6.39452 7.62715 6.46882 7.54359 6.63069 7.52957L7.88405 7.42105C9.0346 7.32144 9.6487 7.72004 9.72635 8.61685C9.74983 8.88809 9.71873 9.1398 9.63306 9.372C9.547 9.59983 9.41342 9.7877 9.23229 9.93561L10.1784 11.2421C10.1525 11.3501 10.0492 11.4802 9.86845 11.6325C9.62225 11.8434 9.41385 11.9562 9.24323 11.9709C9.07262 11.9857 8.94045 11.9354 8.84672 11.8201L8.10546 10.4365L7.90204 10.4541L8.03101 11.9437ZM7.74181 8.60357L7.82704 9.58788L7.85985 9.58504C8.27545 9.54905 8.46829 9.35826 8.43836 9.01266C8.42473 8.85517 8.37313 8.74283 8.28357 8.67566C8.19801 8.60373 8.06336 8.57573 7.87962 8.59163L7.74181 8.60357ZM10.9618 9.38257C10.8204 9.17444 10.7438 9.00257 10.732 8.86695C10.7199 8.72696 10.7493 8.63406 10.8203 8.58825C11.0602 8.45729 11.3967 8.37306 11.8298 8.33556C12.2673 8.29768 12.5846 8.37379 12.7817 8.56387C12.9785 8.74958 13.0942 9.04148 13.1286 9.43958L13.2184 10.4764L13.4415 10.4571C13.5159 10.4506 13.5765 10.4895 13.6235 10.5735C13.6748 10.6572 13.7071 10.7757 13.7204 10.9288C13.7336 11.0819 13.7073 11.2362 13.6414 11.3918C13.58 11.547 13.4836 11.6302 13.3523 11.6416C13.1161 11.6621 12.9203 11.6151 12.765 11.5007C12.6948 11.4539 12.639 11.3948 12.5976 11.3235C12.4183 11.5947 12.1165 11.7486 11.6921 11.7853C11.3728 11.813 11.0939 11.7225 10.8555 11.514C10.617 11.3055 10.4844 11.0459 10.4575 10.7353C10.3957 10.0222 10.7914 9.62872 11.6445 9.55486L12.0054 9.52361L11.9997 9.45799C11.9898 9.34425 11.9639 9.27377 11.9219 9.24655C11.8839 9.21459 11.797 9.20447 11.6614 9.21622C11.4952 9.23061 11.262 9.28606 10.9618 9.38257ZM11.5913 10.5445C11.5996 10.6408 11.6323 10.7129 11.6894 10.7608C11.746 10.8044 11.8137 10.8228 11.8925 10.816C11.9756 10.8088 12.0471 10.7695 12.1071 10.6982L12.0633 10.1929L11.8796 10.2089C11.6696 10.227 11.5735 10.3389 11.5913 10.5445ZM15.6439 11.3374C15.6466 11.368 15.4904 11.397 15.1754 11.4242C14.7368 11.449 14.516 11.4439 14.513 11.4089L14.3289 9.28277L14.1583 9.29754C14.0445 9.30739 13.9618 9.21758 13.9102 9.02812C13.8965 8.97201 13.8872 8.91552 13.8823 8.85865C13.8705 8.72303 13.885 8.58514 13.9258 8.44498C13.9879 8.24567 14.102 8.13882 14.2683 8.12443C14.4345 8.11004 14.5867 8.13653 14.7247 8.20391C14.8628 8.2713 14.9571 8.34246 15.0077 8.41742C15.2628 8.15732 15.5807 8.0108 15.9613 7.97784C16.3419 7.94489 16.6264 8.02383 16.8148 8.21467C17.0032 8.40551 17.1177 8.73498 17.1582 9.20308L17.3287 11.1717C17.3332 11.2242 17.1474 11.2667 16.7712 11.2993C16.3993 11.3315 16.2111 11.3214 16.2066 11.2689L16.0424 9.37241C16.0234 9.15368 15.9374 9.05094 15.7843 9.0642C15.7405 9.06798 15.681 9.09297 15.6057 9.13916C15.5299 9.18098 15.4819 9.21158 15.4615 9.23098L15.6439 11.3374ZM17.6282 6.63027C17.6221 6.56027 17.8182 6.50804 18.2163 6.47357C18.5892 6.4545 18.7776 6.46684 18.7814 6.51058L18.9996 9.03042L19.5453 7.77331C19.5702 7.70504 19.7533 7.65613 20.0945 7.62659C20.4358 7.59704 20.6564 7.59998 20.7564 7.63539L20.0238 9.10041L21.1678 10.8591C21.178 10.8759 21.096 10.8962 20.9218 10.9201C20.7523 10.948 20.6107 10.9669 20.497 10.9767C20.077 11.0131 19.85 11.0129 19.816 10.9762L19.0402 9.57564L19.1658 11.0259C19.1707 11.0827 18.9807 11.1278 18.5957 11.1612C18.2151 11.1941 18.0225 11.1843 18.018 11.1319L17.6282 6.63027Z" fill="black"/>
<g filter="url(#filter0_d_7233_96170)">
<mask id="path-13-outside-1_7233_96170" maskUnits="userSpaceOnUse" x="10.7971" y="14.1246" width="6.83225" height="9.50738" fill="black">
<rect fill="white" x="10.7971" y="14.1246" width="6.83225" height="9.50738"/>
<path d="M15.9521 22.0648C15.9628 22.1762 15.6336 22.2627 14.9646 22.3241C14.3021 22.3849 13.9656 22.3595 13.9549 22.2481L13.4909 17.3994L12.4293 17.5067C12.2325 17.5248 12.104 17.2191 12.0438 16.5897C12.023 16.3733 12.0226 16.1617 12.0425 15.9548C12.069 15.7473 12.1347 15.6388 12.2397 15.6292L14.9354 15.3818C15.0469 15.3715 15.138 15.3896 15.2086 15.4361C15.2852 15.4753 15.3269 15.531 15.3338 15.6032L15.9521 22.0648Z"/>
</mask>
<path d="M15.9521 22.0648C15.9628 22.1762 15.6336 22.2627 14.9646 22.3241C14.3021 22.3849 13.9656 22.3595 13.9549 22.2481L13.4909 17.3994L12.4293 17.5067C12.2325 17.5248 12.104 17.2191 12.0438 16.5897C12.023 16.3733 12.0226 16.1617 12.0425 15.9548C12.069 15.7473 12.1347 15.6388 12.2397 15.6292L14.9354 15.3818C15.0469 15.3715 15.138 15.3896 15.2086 15.4361C15.2852 15.4753 15.3269 15.531 15.3338 15.6032L15.9521 22.0648Z" fill="white"/>
<path d="M13.4909 17.3994L14.1468 17.3392L13.4221 16.7443L13.4909 17.3994ZM12.4293 17.5067L12.492 18.1624L12.4981 18.1618L12.4293 17.5067ZM12.0425 15.9548L11.3889 15.8691L11.3867 15.8893L12.0425 15.9548ZM15.2086 15.4361L14.8479 15.9857L14.9094 16.0215L15.2086 15.4361ZM15.9521 22.0648L15.2962 22.125C15.2803 21.9588 15.3348 21.8187 15.4014 21.7244C15.4601 21.6412 15.5235 21.5987 15.547 21.5841C15.5908 21.5569 15.605 21.5602 15.5435 21.5763C15.4333 21.6053 15.2279 21.6385 14.9019 21.6684L14.9646 22.3241L15.0273 22.9797C15.3703 22.9483 15.664 22.9075 15.883 22.85C15.9861 22.823 16.1224 22.7799 16.2459 22.7032C16.3451 22.6416 16.6478 22.4196 16.608 22.0046L15.9521 22.0648ZM14.9646 22.3241L14.9019 21.6684C14.5792 21.698 14.3739 21.7025 14.2623 21.6941C14.1999 21.6894 14.2144 21.6837 14.2636 21.7031C14.2901 21.7135 14.3604 21.7442 14.4336 21.8157C14.5166 21.8966 14.5951 22.0237 14.6108 22.1879L13.9549 22.2481L13.299 22.3082C13.3384 22.7198 13.673 22.8841 13.7844 22.9279C13.9204 22.9815 14.0624 22.9992 14.1683 23.0072C14.3933 23.0242 14.6875 23.0109 15.0273 22.9797L14.9646 22.3241ZM13.9549 22.2481L14.6108 22.1879L14.1468 17.3392L13.4909 17.3994L12.835 17.4596L13.299 22.3082L13.9549 22.2481ZM13.4909 17.3994L13.4221 16.7443L12.3604 16.8517L12.4293 17.5067L12.4981 18.1618L13.5597 18.0545L13.4909 17.3994ZM12.4293 17.5067L12.3665 16.8511C12.4322 16.845 12.5039 16.8524 12.5743 16.877C12.6433 16.9012 12.695 16.9363 12.7301 16.9672C12.7929 17.0228 12.8047 17.0667 12.7926 17.038C12.7831 17.0153 12.766 16.9642 12.7476 16.8732C12.7297 16.7845 12.7132 16.671 12.6997 16.5295L12.0438 16.5897L11.3878 16.6499C11.4197 16.9822 11.474 17.2967 11.578 17.544C11.6671 17.756 11.9333 18.2137 12.492 18.1624L12.4293 17.5067ZM12.0438 16.5897L12.6997 16.5295C12.6828 16.353 12.6827 16.1836 12.6984 16.0203L12.0425 15.9548L11.3867 15.8893C11.3626 16.1398 11.3633 16.3936 11.3878 16.6499L12.0438 16.5897ZM12.0425 15.9548L12.6962 16.0405C12.7044 15.9762 12.7114 16.0014 12.6758 16.0601C12.6549 16.0947 12.6144 16.1485 12.545 16.1966C12.472 16.2471 12.3874 16.277 12.3024 16.2848L12.2397 15.6292L12.1769 14.9735C11.8729 15.0014 11.6632 15.1844 11.5475 15.3755C11.4463 15.5427 11.4072 15.7259 11.3889 15.8691L12.0425 15.9548ZM12.2397 15.6292L12.3024 16.2848L14.9982 16.0374L14.9354 15.3818L14.8727 14.7261L12.1769 14.9735L12.2397 15.6292ZM14.9354 15.3818L14.9982 16.0374C15.0096 16.0364 14.9382 16.045 14.8479 15.9857L15.2086 15.4361L15.5694 14.8865C15.3378 14.7342 15.0842 14.7067 14.8727 14.7261L14.9354 15.3818ZM15.2086 15.4361L14.9094 16.0215C14.8789 16.0059 14.8224 15.97 14.7704 15.9006C14.7152 15.827 14.6854 15.7425 14.6779 15.6634L15.3338 15.6032L15.9897 15.543C15.9571 15.2023 15.7418 14.9707 15.5078 14.8506L15.2086 15.4361ZM15.3338 15.6032L14.6779 15.6634L15.2962 22.125L15.9521 22.0648L16.608 22.0046L15.9897 15.543L15.3338 15.6032Z" fill="black" mask="url(#path-13-outside-1_7233_96170)"/>
</g>
<defs>
<filter id="filter0_d_7233_96170" x="11.3691" y="14.7207" width="5.24268" height="8.95261" filterUnits="userSpaceOnUse" color-interpolation-filters="sRGB">
<feFlood flood-opacity="0" result="BackgroundImageFix"/>
<feColorMatrix in="SourceAlpha" type="matrix" values="0 0 0 0 0 0 0 0 0 0 0 0 0 0 0 0 0 0 127 0" result="hardAlpha"/>
<feOffset dy="0.658663"/>
<feComposite in2="hardAlpha" operator="out"/>
<feColorMatrix type="matrix" values="0 0 0 0 0 0 0 0 0 0 0 0 0 0 0 0 0 0 0.8 0"/>
<feBlend mode="normal" in2="BackgroundImageFix" result="effect1_dropShadow_7233_96170"/>
<feBlend mode="normal" in="SourceGraphic" in2="effect1_dropShadow_7233_96170" result="shape"/>
</filter>
</defs>
</svg>
