<svg width="38" height="36" viewBox="0 0 38 36" fill="none" xmlns="http://www.w3.org/2000/svg">
<path d="M19.5152 1.89738L7.09214 5.22613C2.56499 6.43918 0.687222 9.69121 1.90015 14.2179L5.22542 26.628C6.43836 31.1547 9.69057 33.0322 14.2177 31.8192L26.6408 28.4904C31.1679 27.2774 33.0339 24.0285 31.8209 19.5018L28.4957 7.09169C27.2827 2.56497 24.0423 0.684337 19.5152 1.89738Z" fill="url(#paint0_linear_settings)"/>
<g opacity="0.5" filter="url(#filter0_f_settings)">
<path d="M25.6367 18.1611L23.3807 9.61542C22.5624 6.51571 20.5143 5.12583 17.8214 5.83674L8.70085 8.2445C5.96379 8.96706 4.90395 11.1774 5.72225 14.2771L7.97824 22.8227C8.80973 25.9724 10.809 27.3206 13.5461 26.5981L22.6666 24.1903C25.3595 23.4794 26.4682 21.3107 25.6367 18.1611Z" fill="#0062FF"/>
</g>
<path d="M30.3153 7.75146H17.4552C12.7687 7.75146 10.1135 10.4067 10.1135 15.0931V27.941C10.1135 32.6274 12.7687 35.2826 17.4552 35.2826H30.3153C35.0017 35.2826 37.6446 32.6274 37.6446 27.941V15.0931C37.6446 10.4067 35.0017 7.75146 30.3153 7.75146Z" fill="#3EA0FE" fill-opacity="0.35" stroke="url(#paint1_linear_settings)" stroke-width="0.35"/>
<circle cx="23.9" cy="21.5" r="3.2" fill="url(#paint2_linear_settings)"/>
<path d="M23.9 17.8V16.4M23.9 26.6V25.2M28.1 21.5H29.5M18.7 21.5H20.1M26.8 18.5L27.9 17.4M19.9 25.6L21 24.5M26.8 24.5L27.9 25.6M19.9 17.4L21 18.5" stroke="white" stroke-width="1.1" stroke-linecap="round"/>
<defs>
<filter id="filter0_f_settings" x="0.96" y="1.16" width="29.44" height="30.12" filterUnits="userSpaceOnUse" color-interpolation-filters="sRGB">
<feFlood flood-opacity="0" result="BackgroundImageFix"/>
<feBlend mode="normal" in="SourceGraphic" in2="BackgroundImageFix" result="shape"/>
<feGaussianBlur stdDeviation="2.25" result="effect1_foregroundBlur"/>
</filter>
<linearGradient id="paint0_linear_settings" x1="6.5" y1="3" x2="30" y2="32" gradientUnits="userSpaceOnUse">
<stop stop-color="#7EC8FF"/>
<stop offset="1" stop-color="#2563EB"/>
</linearGradient>
<linearGradient id="paint1_linear_settings" x1="10" y1="8" x2="37" y2="35" gradientUnits="userSpaceOnUse">
<stop stop-color="#FFFFFF"/>
<stop offset="1" stop-color="#3B82F6"/>
</linearGradient>
<linearGradient id="paint2_linear_settings" x1="21" y1="18" x2="27" y2="25" gradientUnits="userSpaceOnUse">
<stop stop-color="#FFFFFF"/>
<stop offset="1" stop-color="#BFDBFE"/>
</linearGradient>
</defs>
</svg>
