<svg width="42" height="42" viewBox="0 0 42 42" fill="none" xmlns="http://www.w3.org/2000/svg">
<rect width="42" height="42" rx="21" fill="url(#paint0_linear_148_4432)"/>
<rect x="1" y="1" width="40" height="40" rx="20" stroke="white" stroke-opacity="0.4" stroke-width="2"/>
<path d="M22.75 14.3828C23.9279 14.3828 24.8828 13.4279 24.8828 12.25H25.8672C25.8672 13.4279 26.8221 14.3828 28 14.3828V15.3672C26.8221 15.3672 25.8672 16.3221 25.8672 17.5H24.8828C24.8828 16.3221 23.9279 15.3672 22.75 15.3672V14.3828ZM11.375 20.125C14.2745 20.125 16.625 17.7745 16.625 14.875H18.375C18.375 17.7745 20.7255 20.125 23.625 20.125V21.875C20.7255 21.875 18.375 24.2255 18.375 27.125H16.625C16.625 24.2255 14.2745 21.875 11.375 21.875V20.125ZM25.5938 22.75C25.5938 24.3205 24.3205 25.5938 22.75 25.5938V26.9063C24.3205 26.9063 25.5938 28.1795 25.5938 29.75H26.9063C26.9063 28.1795 28.1795 26.9063 29.75 26.9063V25.5938C28.1795 25.5938 26.9063 24.3205 26.9063 22.75H25.5938Z" fill="white" fill-opacity="0.8"/>
<defs>
<linearGradient id="paint0_linear_148_4432" x1="12.4735" y1="11.0997" x2="30.9714" y2="40.7705" gradientUnits="userSpaceOnUse">
<stop offset="0.00425709" stop-color="#35144B"/>
<stop offset="1" stop-color="#D81E13"/>
</linearGradient>
</defs>
</svg>
